<svg xmlns="http://www.w3.org/2000/svg" viewBox="0 0 100 100">
  <rect width="100" height="100" rx="22" fill="#1c1c1e"/>
  <!-- Display -->
  <rect x="10" y="10" width="80" height="20" rx="4" fill="#2c2c2e"/>
  <text x="84" y="24" text-anchor="end" fill="white" font-size="11" font-family="-apple-system,sans-serif" font-weight="200">0</text>
  <!-- Row 1: AC +/- % ÷ -->
  <rect x="10" y="34" width="16" height="14" rx="7" fill="#a5a5a5"/>
  <rect x="28" y="34" width="16" height="14" rx="7" fill="#a5a5a5"/>
  <rect x="46" y="34" width="16" height="14" rx="7" fill="#a5a5a5"/>
  <rect x="64" y="34" width="26" height="14" rx="7" fill="#ff9f0a"/>
  <!-- Row 2: 7 8 9 × -->
  <rect x="10" y="51" width="16" height="14" rx="7" fill="#333"/>
  <rect x="28" y="51" width="16" height="14" rx="7" fill="#333"/>
  <rect x="46" y="51" width="16" height="14" rx="7" fill="#333"/>
  <rect x="64" y="51" width="26" height="14" rx="7" fill="#ff9f0a"/>
  <!-- Row 3: 4 5 6 - -->
  <rect x="10" y="68" width="16" height="14" rx="7" fill="#333"/>
  <rect x="28" y="68" width="16" height="14" rx="7" fill="#333"/>
  <rect x="46" y="68" width="16" height="14" rx="7" fill="#333"/>
  <rect x="64" y="68" width="26" height="14" rx="7" fill="#ff9f0a"/>
  <!-- Row 4: 1 2 3 + -->
  <rect x="10" y="85" width="16" height="12" rx="6" fill="#333"/>
  <rect x="28" y="85" width="16" height="12" rx="6" fill="#333"/>
  <rect x="46" y="85" width="16" height="12" rx="6" fill="#333"/>
  <rect x="64" y="85" width="26" height="12" rx="6" fill="#ff9f0a"/>
</svg>
